<?xml version="1.0" encoding="UTF-8"?>
<svg xmlns="http://www.w3.org/2000/svg" width="400" height="150" viewBox="0 0 400 150" fill="none">
  <path d="M70.6100 56.5040L70.6100 56.5040Q67.0820 56.5040 63.8480 55.5590Q60.6140 54.6140 58.6400 53.1020L58.6400 53.1020L60.9500 47.9780Q62.8400 49.3220 65.4230 50.1830Q68.0060 51.0440 70.6520 51.0440L70.6520 51.0440Q72.6680 51.0440 73.9070 50.6450Q75.1460 50.2460 75.7340 49.5320Q76.3220 48.8180 76.3220 47.8940L76.3220 47.8940Q76.3220 46.7180 75.3980 46.0250Q74.4740 45.3320 72.9620 44.8910Q71.4500 44.4500 69.6230 44.0510Q67.7960 43.6520 65.9690 43.0640Q64.1420 42.4760 62.6300 41.5520Q61.1180 40.6280 60.1730 39.1160Q59.2280 37.6040 59.2280 35.2520L59.2280 35.2520Q59.2280 32.7320 60.5930 30.6530Q61.9580 28.5740 64.7090 27.3350Q67.4600 26.0960 71.6180 26.0960L71.6180 26.0960Q74.3900 26.0960 77.0780 26.7470Q79.7660 27.3980 81.8240 28.7000L81.8240 28.7000L79.7240 33.8660Q77.6660 32.6900 75.6080 32.1230Q73.5500 31.5560 71.5760 31.5560L71.5760 31.5560Q69.6020 31.5560 68.3420 32.0180Q67.0820 32.4800 66.5360 33.2150Q65.9900 33.9500 65.9900 34.9160L65.9900 34.9160Q65.9900 36.0500 66.9140 36.7430Q67.8380 37.4360 69.3500 37.8560Q70.8620 38.2760 72.6890 38.6960Q74.5160 39.1160 76.3430 39.6620Q78.1700 40.2080 79.6820 41.1320Q81.1940 42.0560 82.1390 43.5680Q83.0840 45.0800 83.0840 47.3900L83.0840 47.3900Q83.0840 49.8680 81.6980 51.9260Q80.3120 53.9840 77.5610 55.2440Q74.8100 56.5040 70.6100 56.5040Z M110.9600 56L88.1960 56L88.1960 26.6000L110.4140 26.6000L110.4140 32.0600L94.9580 32.0600L94.9580 38.4440L108.6080 38.4440L108.6080 43.7360L94.9580 43.7360L94.9580 50.5400L110.9600 50.5400L110.9600 56Z M122.2460 56.5040L122.2460 56.5040Q119.2640 56.5040 116.7650 55.3910Q114.2660 54.2780 112.6700 52.2200L112.6700 52.2200L116.4500 47.6840Q117.6680 49.2800 119.0120 50.0990Q120.3560 50.9180 121.9100 50.9180L121.9100 50.9180Q126.0680 50.9180 126.0680 46.0460L126.0680 46.0460L126.0680 32.0600L115.7360 32.0600L115.7360 26.6000L132.8300 26.6000L132.8300 45.6680Q132.8300 51.1280 130.1420 53.8160Q127.4540 56.5040 122.2460 56.5040Z M154.2800 56.5040L154.2800 56.5040Q150.7940 56.5040 147.8330 55.3700Q144.8720 54.2360 142.7090 52.1780Q140.5460 50.1200 139.3490 47.3480Q138.1520 44.5760 138.1520 41.3000L138.1520 41.3000Q138.1520 38.0240 139.3490 35.2520Q140.5460 32.4800 142.7300 30.4220Q144.9140 28.3640 147.8540 27.2300Q150.7940 26.0960 154.2380 26.0960L154.2380 26.0960Q157.7240 26.0960 160.6430 27.2300Q163.5620 28.3640 165.7250 30.4220Q167.8880 32.4800 169.1060 35.2310Q170.3240 37.9820 170.3240 41.3000L170.3240 41.3000Q170.3240 44.5760 169.1060 47.3690Q167.8880 50.1620 165.7250 52.1990Q163.5620 54.2360 160.6430 55.3700Q157.7240 56.5040 154.2800 56.5040ZM154.2380 50.7080L154.2380 50.7080Q156.2120 50.7080 157.8710 50.0360Q159.5300 49.3640 160.7900 48.1040Q162.0500 46.8440 162.7430 45.1220Q163.4360 43.4000 163.4360 41.3000L163.4360 41.3000Q163.4360 39.2000 162.7430 37.4780Q162.0500 35.7560 160.8110 34.4960Q159.5720 33.2360 157.8920 32.5640Q156.2120 31.8920 154.2380 31.8920L154.2380 31.8920Q152.2640 31.8920 150.6050 32.5640Q148.9460 33.2360 147.6860 34.4960Q146.4260 35.7560 145.7330 37.4780Q145.0400 39.2000 145.0400 41.3000L145.0400 41.3000Q145.0400 43.3580 145.7330 45.1010Q146.4260 46.8440 147.6650 48.1040Q148.9040 49.3640 150.5840 50.0360Q152.2640 50.7080 154.2380 50.7080Z M182.6180 56L175.8980 56L175.8980 26.6000L181.5260 26.6000L196.1420 44.4500L196.1420 26.6000L202.8620 26.6000L202.8620 56L197.2760 56L182.6180 38.1500L182.6180 56Z M224.4800 56.5040L224.4800 56.5040Q220.9940 56.5040 218.0750 55.3910Q215.1560 54.2780 212.9930 52.2200Q210.8300 50.1620 209.6330 47.3900Q208.4360 44.6180 208.4360 41.3000Q208.4360 37.9820 209.6330 35.2100Q210.8300 32.4380 213.0140 30.3800Q215.1980 28.3220 218.1380 27.2090Q221.0780 26.0960 224.6060 26.0960L224.6060 26.0960Q228.5120 26.0960 231.6410 27.3980Q234.7700 28.7000 236.9120 31.1780L236.9120 31.1780L232.5440 35.2100Q230.9480 33.5300 229.0580 32.7110Q227.1680 31.8920 224.9420 31.8920L224.9420 31.8920Q222.8000 31.8920 221.0360 32.5640Q219.2720 33.2360 217.9910 34.4960Q216.7100 35.7560 216.0170 37.4780Q215.3240 39.2000 215.3240 41.3000L215.3240 41.3000Q215.3240 43.3580 216.0170 45.0800Q216.7100 46.8020 217.9910 48.0830Q219.2720 49.3640 221.0150 50.0360Q222.7580 50.7080 224.8580 50.7080L224.8580 50.7080Q226.8740 50.7080 228.8060 50.0360L228.8060 50.0360Q229.4780 49.8260 230.1500 49.4900L230.1500 49.4900L230.1500 40.8380L236.3660 40.8380L236.3660 52.7660Q233.9720 54.5720 230.8010 55.5380Q227.6300 56.5040 224.4800 56.5040Z  M276.9980 56L255.4520 56L255.4520 26.6000L262.2560 26.6000L262.2560 50.4560L276.9980 50.4560L276.9980 56Z M284.3780 56L277.4060 56L290.5100 26.6000L297.2300 26.6000L310.3760 56L303.2360 56L300.6320 49.7000L286.9820 49.7000L284.3780 56ZM289.1660 44.5340L298.4900 44.5340L293.8280 33.2780L289.1660 44.5340Z M329.0960 56L313.8920 56L313.8920 26.6000L328.2560 26.6000Q333.8000 26.6000 336.5930 28.7000Q339.3860 30.8000 339.3860 34.2440L339.3860 34.2440Q339.3860 36.5540 338.2520 38.2340L338.2520 38.2340Q337.2440 39.7880 335.5220 40.6700L335.5220 40.6700Q335.9420 40.8380 336.3200 40.9640L336.3200 40.9640Q338.4620 41.8880 339.6590 43.6520Q340.8560 45.4160 340.8560 47.9780L340.8560 47.9780Q340.8560 51.7580 337.8740 53.8790Q334.8920 56 329.0960 56L329.0960 56ZM320.6540 43.6100L320.6540 50.8760L328.5920 50.8760Q331.2380 50.8760 332.6030 50.0150Q333.9680 49.1540 333.9680 47.2640L333.9680 47.2640Q333.9680 45.4160 332.6030 44.5130Q331.2380 43.6100 328.5920 43.6100L328.5920 43.6100L320.6540 43.6100ZM320.6540 31.7240L320.6540 38.6540L327.4160 38.6540Q329.8940 38.6540 331.2170 37.7930Q332.5400 36.9320 332.5400 35.1680L332.5400 35.1680Q332.5400 33.4460 331.2170 32.5850Q329.8940 31.7240 327.4160 31.7240L327.4160 31.7240L320.6540 31.7240Z" fill="#01161e"/>
  <path d="M104.4020 90L100.1900 90L100.1900 71.8000L107.9640 71.8000Q111.7600 71.8000 113.8660 73.5550Q115.9720 75.3100 115.9720 78.4040L115.9720 78.4040Q115.9720 80.4320 115.0100 81.9010Q114.0480 83.3700 112.2800 84.1500L112.2800 84.1500Q112.2540 84.1500 112.2540 84.1760L112.2540 84.1760L116.3100 90L111.7600 90L108.2760 84.9300Q108.1720 84.9300 108.0680 84.9300L108.0680 84.9300L104.4020 84.9300L104.4020 90ZM104.4020 75.2320L104.4020 81.5760L107.8340 81.5760Q109.7840 81.5760 110.7460 80.7310Q111.7080 79.8860 111.7080 78.4040L111.7080 78.4040Q111.7080 76.8960 110.7460 76.0640Q109.7840 75.2320 107.8340 75.2320L107.8340 75.2320L104.4020 75.2320Z M126.4060 90.2080L126.4060 90.2080Q124.0140 90.2080 122.2070 89.2720Q120.4000 88.3360 119.4120 86.7110Q118.4240 85.0860 118.4240 83.0060L118.4240 83.0060Q118.4240 80.9000 119.3990 79.2750Q120.3740 77.6500 122.0640 76.7270Q123.7540 75.8040 125.8860 75.8040L125.8860 75.8040Q127.9400 75.8040 129.5910 76.6750Q131.2420 77.5460 132.2040 79.1710Q133.1660 80.7960 133.1660 83.0580L133.1660 83.0580Q133.1660 83.2920 133.1400 83.5910Q133.1140 83.8900 133.0880 84.1500L133.0880 84.1500L122.5060 84.1500Q122.6360 84.6960 122.9220 85.1640L122.9220 85.1640Q123.4160 86.0480 124.3390 86.5030Q125.2620 86.9580 126.5100 86.9580L126.5100 86.9580Q127.6280 86.9580 128.4730 86.6200Q129.3180 86.2820 130.0200 85.6060L130.0200 85.6060L132.1780 87.9460Q131.2160 89.0380 129.7600 89.6230Q128.3040 90.2080 126.4060 90.2080ZM122.4540 81.7840L122.4540 81.7840L129.3440 81.7840Q129.2400 81.1340 128.9540 80.5880L128.9540 80.5880Q128.5120 79.7820 127.7320 79.3270Q126.9520 78.8720 125.9120 78.8720Q124.8720 78.8720 124.0790 79.3270Q123.2860 79.7820 122.8440 80.5880L122.8440 80.5880Q122.5580 81.1340 122.4540 81.7840Z M141.0260 90.2080L141.0260 90.2080Q139.2320 90.2080 137.5810 89.7790Q135.9300 89.3500 134.9680 88.7000L134.9680 88.7000L136.3200 85.7880Q137.2820 86.3860 138.5950 86.7630Q139.9080 87.1400 141.1820 87.1400L141.1820 87.1400Q142.5860 87.1400 143.1710 86.8020Q143.7560 86.4640 143.7560 85.8660L143.7560 85.8660Q143.7560 85.3720 143.3010 85.1250Q142.8460 84.8780 142.0920 84.7480Q141.3380 84.6180 140.4410 84.4880Q139.5440 84.3580 138.6340 84.1370Q137.7240 83.9160 136.9700 83.4740Q136.2160 83.0320 135.7610 82.2780Q135.3060 81.5240 135.3060 80.3280L135.3060 80.3280Q135.3060 79.0020 136.0730 77.9880Q136.8400 76.9740 138.2960 76.3890Q139.7520 75.8040 141.7800 75.8040L141.7800 75.8040Q143.2100 75.8040 144.6920 76.1160Q146.1740 76.4280 147.1620 77.0260L147.1620 77.0260L145.8100 79.9120Q144.7960 79.3140 143.7690 79.0930Q142.7420 78.8720 141.7800 78.8720L141.7800 78.8720Q140.4280 78.8720 139.8040 79.2360Q139.1800 79.6000 139.1800 80.1720L139.1800 80.1720Q139.1800 80.6920 139.6350 80.9520Q140.0900 81.2120 140.8440 81.3680Q141.5980 81.5240 142.4950 81.6410Q143.3920 81.7580 144.3020 81.9920Q145.2120 82.2260 145.9530 82.6550Q146.6940 83.0840 147.1620 83.8250Q147.6300 84.5660 147.6300 85.7620L147.6300 85.7620Q147.6300 87.0620 146.8500 88.0630Q146.0700 89.0640 144.6010 89.6360Q143.1320 90.2080 141.0260 90.2080Z M157.5180 90.2080L157.5180 90.2080Q155.1260 90.2080 153.3190 89.2720Q151.5120 88.3360 150.5240 86.7110Q149.5360 85.0860 149.5360 83.0060L149.5360 83.0060Q149.5360 80.9000 150.5110 79.2750Q151.4860 77.6500 153.1760 76.7270Q154.8660 75.8040 156.9980 75.8040L156.9980 75.8040Q159.0520 75.8040 160.7030 76.6750Q162.3540 77.5460 163.3160 79.1710Q164.2780 80.7960 164.2780 83.0580L164.2780 83.0580Q164.2780 83.2920 164.2520 83.5910Q164.2260 83.8900 164.2000 84.1500L164.2000 84.1500L153.6180 84.1500Q153.7480 84.6960 154.0340 85.1640L154.0340 85.1640Q154.5280 86.0480 155.4510 86.5030Q156.3740 86.9580 157.6220 86.9580L157.6220 86.9580Q158.7400 86.9580 159.5850 86.6200Q160.4300 86.2820 161.1320 85.6060L161.1320 85.6060L163.2900 87.9460Q162.3280 89.0380 160.8720 89.6230Q159.4160 90.2080 157.5180 90.2080ZM153.5660 81.7840L153.5660 81.7840L160.4560 81.7840Q160.3520 81.1340 160.0660 80.5880L160.0660 80.5880Q159.6240 79.7820 158.8440 79.3270Q158.0640 78.8720 157.0240 78.8720Q155.9840 78.8720 155.1910 79.3270Q154.3980 79.7820 153.9560 80.5880L153.9560 80.5880Q153.6700 81.1340 153.5660 81.7840Z M179.8080 90L176.0120 90L176.0120 88.2580Q175.5440 89.0380 174.7640 89.5060L174.7640 89.5060Q173.5940 90.2080 171.7480 90.2080L171.7480 90.2080Q170.1100 90.2080 168.9400 89.6490Q167.7700 89.0900 167.1460 88.1280Q166.5220 87.1660 166.5220 85.9700L166.5220 85.9700Q166.5220 84.7220 167.1330 83.7860Q167.7440 82.8500 169.0700 82.3170Q170.3960 81.7840 172.5280 81.7840L172.5280 81.7840L175.7520 81.7840Q175.7520 80.4840 174.9590 79.7560Q174.1660 79.0280 172.5280 79.0280L172.5280 79.0280Q171.4100 79.0280 170.3310 79.3790Q169.2520 79.7300 168.4980 80.3280L168.4980 80.3280L167.0420 77.4940Q168.1860 76.6880 169.7980 76.2460Q171.4100 75.8040 173.0740 75.8040L173.0740 75.8040Q176.2720 75.8040 178.0400 77.3120Q179.8080 78.8200 179.8080 82.0180L179.8080 82.0180L179.8080 90ZM175.7520 85.5800L175.7520 84.1500L172.9700 84.1500Q171.5400 84.1500 171.0070 84.6180Q170.4740 85.0860 170.4740 85.7880L170.4740 85.7880Q170.4740 86.5680 171.0850 87.0230Q171.6960 87.4780 172.7620 87.4780L172.7620 87.4780Q173.7760 87.4780 174.5820 86.9970Q175.3880 86.5160 175.7520 85.5800L175.7520 85.5800Z M187.9800 90L183.9240 90L183.9240 76.0120L187.7980 76.0120L187.7980 77.8580Q188.3700 77.0520 189.2540 76.5580L189.2540 76.5580Q190.6320 75.8040 192.6080 75.8040L192.6080 75.8040L192.6080 79.5480Q192.3480 79.5220 192.1400 79.5090Q191.9320 79.4960 191.6980 79.4960L191.6980 79.4960Q190.0340 79.4960 189.0070 80.4450Q187.9800 81.3940 187.9800 83.3960L187.9800 83.3960L187.9800 90Z M202.3400 90.2080L202.3400 90.2080Q200.0780 90.2080 198.3100 89.2850Q196.5420 88.3620 195.5410 86.7240Q194.5400 85.0860 194.5400 83.0060L194.5400 83.0060Q194.5400 80.9000 195.5410 79.2750Q196.5420 77.6500 198.3100 76.7270Q200.0780 75.8040 202.3400 75.8040L202.3400 75.8040Q204.5500 75.8040 206.1880 76.7270Q207.8260 77.6500 208.6060 79.3660L208.6060 79.3660L205.4600 81.0560Q204.9140 80.0680 204.0950 79.6000Q203.2760 79.1320 202.3140 79.1320L202.3140 79.1320Q201.2740 79.1320 200.4420 79.6000Q199.6100 80.0680 199.1290 80.9260Q198.6480 81.7840 198.6480 83.0060L198.6480 83.0060Q198.6480 84.2280 199.1290 85.0860Q199.6100 85.9440 200.4420 86.4120Q201.2740 86.8800 202.3140 86.8800L202.3140 86.8800Q203.2760 86.8800 204.0950 86.4250Q204.9140 85.9700 205.4600 84.9560L205.4600 84.9560L208.6060 86.6720Q207.8260 88.3620 206.1880 89.2850Q204.5500 90.2080 202.3400 90.2080Z M215.4520 90L211.3960 90L211.3960 70.7080L215.4520 70.7080L215.4520 77.4940Q215.9980 76.9480 216.7000 76.5580L216.7000 76.5580Q218.1040 75.8040 219.8980 75.8040L219.8980 75.8040Q221.5620 75.8040 222.8750 76.4670Q224.1880 77.1300 224.9420 78.4950Q225.6960 79.8600 225.6960 81.9920L225.6960 81.9920L225.6960 90L221.6400 90L221.6400 82.6160Q221.6400 80.9260 220.8990 80.1200Q220.1580 79.3140 218.8060 79.3140L218.8060 79.3140Q217.8440 79.3140 217.0770 79.7170Q216.3100 80.1200 215.8810 80.9520Q215.4520 81.7840 215.4520 83.0840L215.4520 83.0840L215.4520 90Z  M246.1740 90L237.9060 90L237.9060 71.8000L246.1740 71.8000Q249.1380 71.8000 251.4000 72.9310Q253.6620 74.0620 254.9360 76.0900Q256.2100 78.1180 256.2100 80.9000L256.2100 80.9000Q256.2100 83.6560 254.9360 85.6970Q253.6620 87.7380 251.4000 88.8690Q249.1380 90 246.1740 90L246.1740 90ZM242.1180 75.2580L242.1180 86.5420L245.9660 86.5420Q247.7860 86.5420 249.1250 85.8530Q250.4640 85.1640 251.2050 83.8900Q251.9460 82.6160 251.9460 80.9000L251.9460 80.9000Q251.9460 79.1580 251.2050 77.8970Q250.4640 76.6360 249.1250 75.9470Q247.7860 75.2580 245.9660 75.2580L245.9660 75.2580L242.1180 75.2580Z M271.9220 90L268.1260 90L268.1260 88.2580Q267.6580 89.0380 266.8780 89.5060L266.8780 89.5060Q265.7080 90.2080 263.8620 90.2080L263.8620 90.2080Q262.2240 90.2080 261.0540 89.6490Q259.8840 89.0900 259.2600 88.1280Q258.6360 87.1660 258.6360 85.9700L258.6360 85.9700Q258.6360 84.7220 259.2470 83.7860Q259.8580 82.8500 261.1840 82.3170Q262.5100 81.7840 264.6420 81.7840L264.6420 81.7840L267.8660 81.7840Q267.8660 80.4840 267.0730 79.7560Q266.2800 79.0280 264.6420 79.0280L264.6420 79.0280Q263.5240 79.0280 262.4450 79.3790Q261.3660 79.7300 260.6120 80.3280L260.6120 80.3280L259.1560 77.4940Q260.3000 76.6880 261.9120 76.2460Q263.5240 75.8040 265.1880 75.8040L265.1880 75.8040Q268.3860 75.8040 270.1540 77.3120Q271.9220 78.8200 271.9220 82.0180L271.9220 82.0180L271.9220 90ZM267.8660 85.5800L267.8660 84.1500L265.0840 84.1500Q263.6540 84.1500 263.1210 84.6180Q262.5880 85.0860 262.5880 85.7880L262.5880 85.7880Q262.5880 86.5680 263.1990 87.0230Q263.8100 87.4780 264.8760 87.4780L264.8760 87.4780Q265.8900 87.4780 266.6960 86.9970Q267.5020 86.5160 267.8660 85.5800L267.8660 85.5800Z M281.7580 90.2080L281.7580 90.2080Q279.2880 90.2080 277.9100 88.9470Q276.5320 87.6860 276.5320 85.1900L276.5320 85.1900L276.5320 79.1320L274.3740 79.1320L274.3740 76.0120L276.5320 76.0120L276.5320 72.9180L280.5880 72.9180L280.5880 76.0120L284.0720 76.0120L284.0720 79.1320L280.5880 79.1320L280.5880 85.1380Q280.5880 86.0220 281.0560 86.5030Q281.5240 86.9840 282.3300 86.9840L282.3300 86.9840Q283.2920 86.9840 283.9680 86.4640L283.9680 86.4640L285.0600 89.3240Q284.4360 89.7660 283.5650 89.9870Q282.6940 90.2080 281.7580 90.2080Z M300.1740 90L296.3780 90L296.3780 88.2580Q295.9100 89.0380 295.1300 89.5060L295.1300 89.5060Q293.9600 90.2080 292.1140 90.2080L292.1140 90.2080Q290.4760 90.2080 289.3060 89.6490Q288.1360 89.0900 287.5120 88.1280Q286.8880 87.1660 286.8880 85.9700L286.8880 85.9700Q286.8880 84.7220 287.4990 83.7860Q288.1100 82.8500 289.4360 82.3170Q290.7620 81.7840 292.8940 81.7840L292.8940 81.7840L296.1180 81.7840Q296.1180 80.4840 295.3250 79.7560Q294.5320 79.0280 292.8940 79.0280L292.8940 79.0280Q291.7760 79.0280 290.6970 79.3790Q289.6180 79.7300 288.8640 80.3280L288.8640 80.3280L287.4080 77.4940Q288.5520 76.6880 290.1640 76.2460Q291.7760 75.8040 293.4400 75.8040L293.4400 75.8040Q296.6380 75.8040 298.4060 77.3120Q300.1740 78.8200 300.1740 82.0180L300.1740 82.0180L300.1740 90ZM296.1180 85.5800L296.1180 84.1500L293.3360 84.1500Q291.9060 84.1500 291.3730 84.6180Q290.8400 85.0860 290.8400 85.7880L290.8400 85.7880Q290.8400 86.5680 291.4510 87.0230Q292.0620 87.4780 293.1280 87.4780L293.1280 87.4780Q294.1420 87.4780 294.9480 86.9970Q295.7540 86.5160 296.1180 85.5800L296.1180 85.5800Z" fill="#6b7280"/>
</svg>
